<svg width="400" height="400" viewBox="0 0 400 400" fill="none" xmlns="http://www.w3.org/2000/svg">
  <rect width="400" height="400" fill="#F3F4F6"/>
  <path d="M175 150H225C230.523 150 235 154.477 235 160V240C235 245.523 230.523 250 225 250H175C169.477 250 165 245.523 165 240V160C165 154.477 169.477 150 175 150Z" stroke="#9CA3AF" stroke-width="2" fill="none"/>
  <circle cx="190" cy="175" r="8" stroke="#9CA3AF" stroke-width="2" fill="none"/>
  <path d="M165 220L185 200L200 215L220 195L235 210V240C235 245.523 230.523 250 225 250H175C169.477 250 165 245.523 165 240V220Z" fill="#9CA3AF"/>
  <text x="200" y="280" text-anchor="middle" fill="#6B7280" font-family="Arial, sans-serif" font-size="14">No Image Available</text>
</svg> 